<?xml version="1.0" encoding="UTF-8"?>
<svg id="Ebene_2" data-name="Ebene 2" xmlns="http://www.w3.org/2000/svg" viewBox="0 0 532.16 189.21">
  <defs>
    <style>
      .cls-1 {
        fill: #fff;
      }

      .cls-2 {
        fill: #e2007a;
      }
    </style>
  </defs>
  <g id="Ebene_1-2" data-name="Ebene 1">
    <g id="Farblogo_ohne_Schatten" data-name="Farblogo ohne Schatten">
      <rect class="cls-2" x="177.39" y="59.13" width="354.78" height="130.08"/>
      <polygon points="177.39 59.13 354.78 59.13 354.78 0 0 0 0 130.09 177.39 130.09 177.39 59.13"/>
      <path class="cls-1" d="m96.25,118.25l-7.5-16.88-5.17,6.86v10.02h-6.66v-43.66l6.66-3.49v21.41c0,2.07-.07,5.56-.07,7.24.91-1.36,2.65-3.95,3.75-5.56l7.05-9.9h7.57l-8.6,11.38,10.22,22.57h-7.24Z"/>
      <path class="cls-1" d="m131.49,101.31c0,6.21-3.3,11.32-8.34,11.32s-8.47-4.07-8.47-11.51c0-6.73,3.1-11.19,8.15-11.19,5.37,0,8.67,4.46,8.67,11.38Zm6.73-.2c0-10.61-6.47-17.53-15.14-17.53s-15.14,6.6-15.14,17.72,6.41,17.66,14.94,17.66,15.33-6.6,15.33-17.85Z"/>
      <path class="cls-1" d="m173.72,118.25h-6.66v-19.21c0-6.85-2.59-9.31-6.98-9.31s-6.99,3.17-6.99,8.67v19.86h-6.66v-33.96h6.66v3.23c1.68-2.46,5.05-3.95,8.54-3.95,7.89,0,12.09,5.17,12.09,15.2v19.47Z"/>
      <path class="cls-1" d="m238.18,118.25l-7.5-16.88-5.17,6.86v10.02h-6.66v-43.66l6.66-3.49v21.41c0,2.07-.07,5.56-.07,7.24.9-1.36,2.65-3.95,3.75-5.56l7.05-9.9h7.57l-8.6,11.38,10.22,22.57h-7.24Z"/>
      <path class="cls-1" d="m269.29,90.38h-8.41v18.43c0,3.17,1.04,4.08,3.49,4.08,1.75,0,3.69-.65,4.92-1.36l-.77,5.88c-1.62.91-3.88,1.55-6.53,1.55-4.72,0-7.63-2.91-7.63-8.99v-19.6h-4.85v-6.08h4.85v-9.7l6.53-3.49v13.19h8.41v6.08Z"/>
      <rect class="cls-1" x="278.66" y="84.3" width="6.66" height="33.96"/>
      <path class="cls-1" d="m282.02,79.9c-2.39,0-4.33-1.94-4.33-4.27s1.94-4.33,4.33-4.33,4.27,1.94,4.27,4.33-1.94,4.27-4.27,4.27Z"/>
      <path class="cls-1" d="m311.51,118.25h-6.66l-12.16-33.96h6.98l6.08,18.43c1.1,3.3,2.07,6.47,2.52,8.34.39-1.88,1.3-5.05,2.33-8.34l5.82-18.43h7.05l-11.97,33.96Z"/>
      <path class="cls-1" d="m354.78,118.25h-6.53v-3.36c-2.33,2.33-5.63,4.07-9.31,4.07-5.5,0-11.77-3.1-11.77-11.45,0-7.57,5.82-11,13.52-11,3.17,0,5.69.45,7.57,1.29v-2.52c0-3.69-2.26-5.76-6.4-5.76-3.49,0-6.21.65-8.86,2.13l-2.59-5.05c3.23-2,6.86-3.04,11.64-3.04,7.57,0,12.74,3.69,12.74,11.38v23.28Zm-21.28-10.93c0,3.36,2.13,5.63,6.53,5.63,3.56,0,6.66-2.2,8.22-4.33v-4.85c-1.81-.9-4.14-1.49-7.76-1.49-4.27,0-6.99,1.94-6.99,5.04Z"/>
      <path class="cls-1" d="m209.28,118.25h-6.53v-3.36c-2.33,2.33-5.63,4.07-9.31,4.07-5.5,0-11.77-3.1-11.77-11.45,0-7.57,5.82-11,13.52-11,3.17,0,5.69.45,7.57,1.29v-2.52c0-3.69-2.26-5.76-6.4-5.76-3.49,0-6.21.65-8.86,2.13l-2.59-5.05c3.24-2,6.86-3.04,11.64-3.04,7.57,0,12.74,3.69,12.74,11.38v23.28Zm-21.28-10.93c0,3.36,2.13,5.63,6.53,5.63,3.56,0,6.66-2.2,8.21-4.33v-4.85c-1.81-.9-4.14-1.49-7.76-1.49-4.27,0-6.99,1.94-6.99,5.04Z"/>
    </g>
  </g>
</svg>